<?xml version="1.0" encoding="utf-8"?>
<!-- Generator: Adobe Illustrator 22.1.0, SVG Export Plug-In . SVG Version: 6.00 Build 0)  -->
<svg version="1.1" id="Layer_1" xmlns="http://www.w3.org/2000/svg" xmlns:xlink="http://www.w3.org/1999/xlink" x="0px" y="0px"
	 viewBox="0 0 173.9 70.2" style="enable-background:new 0 0 173.9 70.2;" xml:space="preserve">
<style type="text/css">
	.st0{fill:#FFFFFF;}
	.st1{fill:url(#SVGID_1_);}
	.st2{fill:url(#SVGID_2_);}
	.st3{fill:url(#SVGID_3_);}
	.st4{fill:url(#SVGID_4_);}
	.st5{fill:url(#SVGID_5_);}
	.st6{fill:url(#SVGID_6_);}
</style>
<rect x="58.7" y="31.1" class="st0" width="2.9" height="25.3"/>
<path class="st0" d="M121.5,31.2l-2.5,1.9v2.4h-4.1v2.6h4.1v12.6c0,2.8,0.6,5.7,5.1,5.7h2.3v-2.6h-2.3c-2.1,0-2.5-0.5-2.5-3.2V38.1
	h4.8v-2.6h-4.8L121.5,31.2"/>
<path class="st0" d="M74.4,35.5c-5.3,0-9.6,4.7-9.6,10.5s4.3,10.5,9.6,10.5c2.7,0,5.3-1.3,7.1-3.4v3.4c-0.1,1.7-0.7,3.3-1.8,4.6
	c-1.4,1.3-3.3,2-5.2,1.8v2.6c2.6,0.1,5.1-0.8,7-2.6c1.6-1.7,2.6-4,2.6-6.4v-21L80.6,38C79,36.4,76.7,35.5,74.4,35.5 M74.4,53.8
	c-3.9,0-7.1-3.5-7.1-7.9s3.2-7.9,7.1-7.9s7.1,3.5,7.1,7.9S78.3,53.8,74.4,53.8L74.4,53.8z"/>
<path class="st0" d="M144.8,35.5c-5.3,0-9.6,4.7-9.6,10.4s4.3,10.4,9.6,10.4s9.6-4.7,9.6-10.4S150.1,35.5,144.8,35.5 M144.8,53.8
	c-3.9,0-7.1-3.5-7.1-7.9s3.2-7.9,7.1-7.9s7.1,3.5,7.1,7.9S148.7,53.8,144.8,53.8z"/>
<rect x="109.2" y="35.5" class="st0" width="2.6" height="20.9"/>
<rect x="109.2" y="28.8" class="st0" width="2.6" height="2.1"/>
<rect x="129.5" y="35.5" class="st0" width="2.6" height="20.9"/>
<rect x="129.5" y="28.8" class="st0" width="2.6" height="2.1"/>
<path class="st0" d="M96.3,35.5c-2-0.1-4,0.6-5.6,2v-2h-2.6v9l0,0v12h2.6v-12c0-2.4,0.8-6.3,5.6-6.3s5.6,4,5.6,6.4v11.8h2.6v-12
	C104.4,38.9,101.3,35.4,96.3,35.5"/>
<path class="st0" d="M165.8,35.5c-2-0.1-4,0.6-5.6,2v-2h-2.6v20.9h2.6v-12c0-2.4,0.8-6.3,5.6-6.3s5.6,4,5.6,6.4v11.9h2.6v-12
	C173.9,38.9,170.8,35.4,165.8,35.5"/>
<path class="st0" d="M129,61.5l-0.8,0.6c-0.4-0.6-1-1-1.6-1.3s-1.4-0.5-2.1-0.5c-0.8,0-1.6,0.2-2.3,0.6c-0.7,0.4-1.2,0.9-1.6,1.6
	c-0.4,0.7-0.6,1.5-0.6,2.2c0,1.2,0.4,2.3,1.3,3.1c0.9,0.8,2,1.3,3.3,1.3c1.4,0,2.7-0.6,3.6-1.7L129,68c-0.5,0.7-1.2,1.2-2,1.5
	c-0.8,0.4-1.7,0.5-2.6,0.5c-1.6,0.1-3.2-0.6-4.3-1.8c-0.9-1-1.3-2.3-1.3-3.7c0-1.4,0.5-2.8,1.6-3.8s2.5-1.6,4-1.5
	c0.9,0,1.8,0.2,2.6,0.6C127.8,60.3,128.5,60.8,129,61.5"/>
<path class="st0" d="M134.9,59.6l4.8,10.3h-1.1l-1.6-3.4h-4.4l-1.6,3.4h-1.1l4.9-10.3L134.9,59.6 M134.8,61.8l-1.8,3.7h3.5
	L134.8,61.8z"/>
<path class="st0" d="M140.2,68l0.9-0.5c0.6,1.1,1.3,1.7,2.1,1.7c0.3,0,0.7-0.1,1-0.2s0.5-0.4,0.7-0.7c0.2-0.3,0.2-0.6,0.2-0.9
	c0-0.4-0.1-0.7-0.4-1c-0.5-0.6-1.1-1.2-1.8-1.7c-0.6-0.4-1.1-0.9-1.6-1.4c-0.4-0.5-0.5-1-0.6-1.6c0-0.4,0.1-0.9,0.3-1.2
	c0.2-0.4,0.5-0.7,0.9-0.9s0.8-0.3,1.3-0.3s0.9,0.1,1.4,0.4c0.5,0.3,1,0.8,1.3,1.3l-0.8,0.6c-0.3-0.4-0.6-0.7-1-1
	c-0.3-0.2-0.6-0.3-0.9-0.2c-0.4,0-0.7,0.1-1,0.4c-0.3,0.2-0.4,0.6-0.4,0.9c0,0.2,0,0.4,0.1,0.7s0.3,0.5,0.5,0.7
	c0.1,0.1,0.6,0.5,1.3,1s1.3,1.1,1.8,1.8c0.3,0.5,0.5,1,0.5,1.6c0,0.7-0.3,1.4-0.9,1.9c-0.5,0.5-1.3,0.8-2.1,0.8
	c-0.6,0-1.2-0.2-1.7-0.5C141,69.2,140.5,68.6,140.2,68"/>
<rect x="148.6" y="59.6" class="st0" width="1" height="10.3"/>
<polyline class="st0" points="152.6,69.9 152.6,59.6 152.8,59.6 159.6,67.5 159.6,59.6 160.6,59.6 160.6,69.9 160.4,69.9 
	153.6,62.1 153.6,69.9 152.6,69.9 "/>
<path class="st0" d="M168.4,59.3c1.5,0,2.9,0.5,3.9,1.6c2.1,2.1,2.1,5.5,0,7.7c-1,1-2.4,1.6-3.9,1.6s-2.9-0.5-3.9-1.6
	c-1-1-1.6-2.4-1.6-3.8c0-1,0.2-1.9,0.7-2.8C164.7,60.4,166.5,59.3,168.4,59.3 M168.4,60.3c-1.6,0-3,0.9-3.8,2.2
	c-0.4,0.7-0.6,1.5-0.6,2.2c0,2.4,1.9,4.3,4.3,4.4l0,0c0.8,0,1.5-0.2,2.2-0.6s1.3-0.9,1.7-1.6s0.6-1.5,0.6-2.2c0-0.8-0.2-1.5-0.6-2.2
	c-0.4-0.7-0.9-1.2-1.6-1.6C170,60.6,169.3,60.3,168.4,60.3L168.4,60.3z"/>
<radialGradient id="SVGID_1_" cx="6.05" cy="970.79" r="4.51" gradientTransform="matrix(1 0 0 1 0 -928.47)" gradientUnits="userSpaceOnUse">
	<stop  offset="0" style="stop-color:#E0E0E0"/>
	<stop  offset="1" style="stop-color:#666666"/>
</radialGradient>
<ellipse class="st1" cx="6.2" cy="41.8" rx="2.5" ry="2.9"/>
<radialGradient id="SVGID_2_" cx="14.93" cy="985.7" r="4.51" gradientTransform="matrix(1 0 0 1 0 -928.47)" gradientUnits="userSpaceOnUse">
	<stop  offset="0" style="stop-color:#E0E0E0"/>
	<stop  offset="1" style="stop-color:#666666"/>
</radialGradient>
<ellipse class="st2" cx="15.1" cy="56.7" rx="2.5" ry="2.9"/>
<radialGradient id="SVGID_3_" cx="21.39" cy="970.07" r="47.79" gradientTransform="matrix(1 0 0 1 0 -928.47)" gradientUnits="userSpaceOnUse">
	<stop  offset="0" style="stop-color:#E0E0E0"/>
	<stop  offset="1" style="stop-color:#666666"/>
</radialGradient>
<path class="st3" d="M46,34.6c0-3.6-0.6-5-4.1-7.1h-0.1l0,0l-0.1-0.1C32.3,22,23.7,15.8,31,0c0,0-7.5,4.2-8,16.9
	c0,7.4,1.5,8.8,1.4,11.1c-0.1,1.5-1.3,2.6-2.8,2.5c-1.5,0.1-2.8-1-2.9-2.5c0-0.1,0-0.1,0-0.2c0-2.4,1.4-2.8,1.6-10
	c0.2-3.4-1-6.8-3.3-9.4c2,6.3,0,11.3-3.9,14.1c1.5-2.9,1-6.4-1.1-8.9c0.5,4.2-1.5,8.4-5.2,10.6l0,0l-5.4,3.1C0.5,28,0,28.7,0,29.3
	s0.5,1.3,1.4,1.8l16.1,9.3c1.3,0.7,2.7,1,4.2,1s2.9-0.3,4.2-1l14.3-6.8L27,42.2c-2.5,1.6-4,4.3-4.2,7.3l-0.1,18.4
	c-0.1,0.7,0.1,1.4,0.6,1.9c0.2,0.2,0.6,0.4,0.9,0.4c0.6,0,1.1-0.2,1.6-0.5l15.9-9.3c2.5-1.6,4-4.3,4.2-7.3L46,34.8
	C46,34.8,46,34.7,46,34.6z M29.5,62.6c-1.6-0.2-2.7-1.7-2.5-3.2c0.2-1.3,1.2-2.3,2.5-2.5c1.6,0.2,2.7,1.7,2.5,3.2
	C31.9,61.4,30.8,62.4,29.5,62.6z M34.4,53.5c-1.6-0.2-2.7-1.7-2.5-3.2c0.2-1.3,1.2-2.3,2.5-2.5c1.6,0.2,2.7,1.7,2.5,3.2
	C36.7,52.3,35.7,53.3,34.4,53.5z M39.2,44.4c-1.6,0.2-3-0.9-3.2-2.5s0.9-3,2.5-3.2s3,0.9,3.2,2.5c0,0.1,0,0.2,0,0.4
	C41.8,43,40.7,44.3,39.2,44.4C39.2,44.3,39.2,44.3,39.2,44.4L39.2,44.4z"/>
<linearGradient id="SVGID_4_" gradientUnits="userSpaceOnUse" x1="-3.3998" y1="934.9781" x2="20.0802" y2="1021.2981" gradientTransform="matrix(1 0 0 1 0 -928.47)">
	<stop  offset="0" style="stop-color:#FF6900"/>
	<stop  offset="1" style="stop-color:#FF0000"/>
</linearGradient>
<ellipse class="st4" cx="6.2" cy="41.8" rx="2.5" ry="2.9"/>
<linearGradient id="SVGID_5_" gradientUnits="userSpaceOnUse" x1="1.1074" y1="933.7507" x2="24.5974" y2="1020.0707" gradientTransform="matrix(1 0 0 1 0 -928.47)">
	<stop  offset="0" style="stop-color:#FF6900"/>
	<stop  offset="1" style="stop-color:#FF0000"/>
</linearGradient>
<ellipse class="st5" cx="15.1" cy="56.7" rx="2.5" ry="2.9"/>
<linearGradient id="SVGID_6_" gradientUnits="userSpaceOnUse" x1="14.9595" y1="929.9947" x2="38.4495" y2="1016.2947" gradientTransform="matrix(1 0 0 1 0 -928.47)">
	<stop  offset="0" style="stop-color:#FF6900"/>
	<stop  offset="1" style="stop-color:#FF0000"/>
</linearGradient>
<path class="st6" d="M46,34.6c0-3.6-0.6-5-4.1-7.1h-0.1l0,0l-0.1-0.1C32.3,22,23.7,15.8,31,0c0,0-7.5,4.2-8,16.9
	c0,7.4,1.5,8.8,1.4,11.1c-0.1,1.5-1.3,2.6-2.8,2.5c-1.5,0.1-2.8-1-2.9-2.5c0-0.1,0-0.1,0-0.2c0-2.4,1.4-2.8,1.6-10
	c0.2-3.4-1-6.8-3.3-9.4c2,6.3,0,11.3-3.9,14.1c1.5-2.9,1-6.4-1.1-8.9c0.5,4.2-1.5,8.4-5.2,10.6l0,0l-5.4,3.1C0.5,28,0,28.7,0,29.3
	s0.5,1.3,1.4,1.8l16.1,9.3c1.3,0.7,2.7,1,4.2,1s2.9-0.3,4.2-1l14.3-6.8L27,42.2c-2.5,1.6-4,4.3-4.2,7.3l-0.1,18.4
	c-0.1,0.7,0.1,1.4,0.6,1.9c0.2,0.2,0.6,0.4,0.9,0.4c0.6,0,1.1-0.2,1.6-0.5l15.9-9.3c2.5-1.6,4-4.3,4.2-7.3L46,34.8
	C46,34.8,46,34.7,46,34.6z M29.5,62.6c-1.6-0.2-2.7-1.7-2.5-3.2c0.2-1.3,1.2-2.3,2.5-2.5c1.6,0.2,2.7,1.7,2.5,3.2
	C31.9,61.4,30.8,62.4,29.5,62.6z M34.4,53.5c-1.6-0.2-2.7-1.7-2.5-3.2c0.2-1.3,1.2-2.3,2.5-2.5c1.6,0.2,2.7,1.7,2.5,3.2
	C36.7,52.3,35.7,53.3,34.4,53.5z M39.2,44.4c-1.6,0.2-3-0.9-3.2-2.5s0.9-3,2.5-3.2s3,0.9,3.2,2.5c0,0.1,0,0.2,0,0.4
	C41.8,43,40.7,44.3,39.2,44.4C39.2,44.3,39.2,44.3,39.2,44.4L39.2,44.4z"/>
</svg>
